{"title":"Snow White And the Huntsman(2012)MPEG-4[DaScubaDude]","uid":15373395,"size":1454961090,"categoryP":"video","categoryS":"movies","magnet":"?xt=urn:btih:84fb9b9e12d53a3ed3d5a0ad45f2c92a694d0fbe&amp;dn=Snow+White+And+the+Huntsman%282012%29MPEG-4%5BDaScubaDude%5D&amp;tr=udp%3A%2F%2Ftracker.leechers-paradise.org%3A6969&amp;tr=udp%3A%2F%2Fzer0day.ch%3A1337&amp;tr=udp%3A%2F%2Fopen.demonii.com%3A1337&amp;tr=udp%3A%2F%2Ftracker.coppersurfer.tk%3A6969&amp;tr=udp%3A%2F%2Fexodus.desync.com%3A6969","seeders":1,"leechers":0,"uploader":"dascuba","files":1,"time":1469167496,"description":"Snow White and the Huntsman (2012)\r\nPG-13 | 2h 7min | Action, Adventure, Drama | 1 June 2012 (USA)\r\nIn a twist to the fairy tale, the Huntsman ordered to take Snow White into the woods to be killed winds up becoming her protector and mentor in a quest to vanquish the Evil Queen.\r\nDirector: Rupert Sanders\r\nWriters: Evan Daugherty (screenplay), John Lee Hancock (screenplay) |\r\nStars: Kristen Stewart, Chris Hemsworth, Charlize Theron |\r\n\r\nGeneral\r\nComplete name                            : Snow White &amp;theHuntSNOW_WHITE_AND_THE_HUNTSMAN_Title1.mp4\r\nFormat                                   : MPEG-4\r\nFormat profile                           : Base Media\r\nCodec ID                                 : isom (isom/iso2/avc1/mp41)\r\nFile size                                : 1.36 GiB\r\nDuration                                 : 2h 11mn\r\nOverall bit rate                         : 1 475 Kbps\r\nMovie name                               : SNOW_WHITE_AND_THE_HUNTSMAN\r\nGenre                                    : Fantasy\r\nWriting application                      : Lavf54.6.100\r\n\r\nVideo\r\nID                                       : 1\r\nFormat                                   : AVC\r\nFormat/Info                              : Advanced Video Codec\r\nFormat profile                           :   \r\nFormat settings, CABAC                   : No\r\nFormat settings, ReFrames                : 6 frames\r\nCodec ID                                 : avc1\r\nCodec ID/Info                            : Advanced Video Coding\r\nDuration                                 : 2h 11mn\r\nBit rate                                 : 1 202 Kbps\r\nWidth                                    : 720 pixels\r\nHeight                                   : 404 pixels\r\nDisplay aspect ratio                     : 16:9\r\nFrame rate mode                          : Constant\r\nFrame rate                               : 29.970 (30000/1001) fps\r\nColor space                              : YUV\r\nChroma subsampling                       : 4:2:0\r\nBit depth                                : 8 bits\r\nScan type                                : Progressive\r\nBits/(Pixel*Frame)                       : 0.138\r\nStream size                              : 1.10 GiB (82%)\r\n\r\nAudio\r\nID                                       : 2\r\nFormat                                   : AAC\r\nFormat/Info                              : Advanced Audio Codec\r\nFormat profile                           : LC\r\nCodec ID                                 : 40\r\nDuration                                 : 2h 11mn\r\nBit rate mode                            : Constant\r\nBit rate                                 : 265 Kbps\r\nChannel(s)                               : 2 channels\r\nChannel(s)_Original                      : 6 channels\r\nChannel positions                        : Front: L C R, Side: L R, LFE\r\nSampling rate                            : 44.1 KHz\r\nFrame rate                               : 43.066 fps (1024 spf)\r\nCompression mode                         : Lossy\r\nStream size                              : 250 MiB (18%)\r\nDefault                                  : Yes\r\nAlternate group                          : 1","torrent":{"xt":"urn:btih:84fb9b9e12d53a3ed3d5a0ad45f2c92a694d0fbe","amp;dn":"Snow+White+And+the+Huntsman%282012%29MPEG-4%5BDaScubaDude%5D","amp;tr":["udp%3A%2F%2Ftracker.leechers-paradise.org%3A6969","udp%3A%2F%2Fzer0day.ch%3A1337","udp%3A%2F%2Fopen.demonii.com%3A1337","udp%3A%2F%2Ftracker.coppersurfer.tk%3A6969","udp%3A%2F%2Fexodus.desync.com%3A6969"],"infoHash":"84fb9b9e12d53a3ed3d5a0ad45f2c92a694d0fbe","infoHashBuffer":{"type":"Buffer","data":[132,251,155,158,18,213,58,62,211,213,160,173,69,242,201,42,105,77,15,190]},"announce":[],"urlList":[]}}